<?xml version="1.0" encoding="utf-8"?>
<!-- Generator: Adobe Illustrator 23.0.5, SVG Export Plug-In . SVG Version: 6.00 Build 0)  -->
<svg version="1.1" id="Layer_1" xmlns="http://www.w3.org/2000/svg" xmlns:xlink="http://www.w3.org/1999/xlink" x="0px" y="0px"
	 viewBox="0 0 3008.7 1990.3" style="enable-background:new 0 0 3008.7 1990.3;" xml:space="preserve">
<style type="text/css">
	.st0{fill:#741319;}
	.st1{fill:#9E9E93;}
	.st2{fill:#ED0000;}
	.st3{fill:#FFFFFF;}
</style>
<g>
	<path class="st0" d="M1479.3,1501.6c-2.1,0-4.2-0.8-5.8-2.3L117.5,221.7c-3.4-3.2-3.6-8.6-0.4-12c3.2-3.4,8.6-3.6,12-0.4
		l1355.9,1277.6c3.4,3.2,3.6,8.6,0.4,12C1483.8,1500.7,1481.6,1501.6,1479.3,1501.6z"/>
</g>
<g>
	<path class="st0" d="M1363.7,1538.6c-2.1,0-4.2-0.8-5.8-2.3L59.2,312.6c-3.4-3.2-3.6-8.6-0.4-12c3.2-3.4,8.6-3.6,12-0.4
		l1298.7,1223.6c3.4,3.2,3.6,8.6,0.4,12C1368.2,1537.7,1366,1538.6,1363.7,1538.6z"/>
</g>
<g>
	<path class="st0" d="M1221.9,1540.8c-2.1,0-4.2-0.8-5.8-2.3L69.6,458.3c-3.4-3.2-3.6-8.6-0.4-12c3.2-3.4,8.6-3.6,12-0.4
		l1146.5,1080.2c3.4,3.2,3.6,8.6,0.4,12C1226.4,1539.9,1224.2,1540.8,1221.9,1540.8z"/>
</g>
<g>
	<path class="st0" d="M1099.9,1543.6c-2.1,0-4.2-0.8-5.8-2.3L72.4,578.7c-3.4-3.2-3.6-8.6-0.4-12c3.2-3.4,8.6-3.6,12-0.4
		l1021.6,962.6c3.4,3.2,3.6,8.6,0.4,12C1104.4,1542.7,1102.1,1543.6,1099.9,1543.6z"/>
</g>
<g>
	<path class="st0" d="M974.1,1547.4c-2.1,0-4.2-0.8-5.8-2.3L72.4,701c-3.4-3.2-3.6-8.6-0.4-12c3.2-3.4,8.6-3.6,12-0.4l895.9,844.1
		c3.4,3.2,3.6,8.6,0.4,12C978.6,1546.5,976.4,1547.4,974.1,1547.4z"/>
</g>
<g>
	<path class="st0" d="M839.8,1538.6c-2.1,0-4.2-0.8-5.8-2.3l-780.1-735c-3.4-3.2-3.6-8.6-0.4-12c3.2-3.4,8.6-3.6,12-0.4l780.1,735
		c3.4,3.2,3.6,8.6,0.4,12C844.3,1537.7,842,1538.6,839.8,1538.6z"/>
</g>
<g>
	<path class="st0" d="M714.3,1551c-2.1,0-4.2-0.8-5.8-2.3L71.9,948.9c-3.4-3.2-3.6-8.6-0.4-12c3.2-3.4,8.6-3.6,12-0.4l636.6,599.8
		c3.4,3.2,3.6,8.6,0.4,12C718.9,1550.1,716.6,1551,714.3,1551z"/>
</g>
<g>
	<path class="st0" d="M617,1577c-2.1,0-4.2-0.8-5.8-2.3L84.6,1078.5c-3.4-3.2-3.6-8.6-0.4-12c3.2-3.4,8.6-3.6,12-0.4l526.6,496.2
		c3.4,3.2,3.6,8.6,0.4,12C621.6,1576.1,619.3,1577,617,1577z"/>
</g>
<g>
	<path class="st0" d="M496.2,1589.8c-2.1,0-4.2-0.8-5.8-2.3L84.6,1205.2c-3.4-3.2-3.6-8.6-0.4-12c3.2-3.4,8.6-3.6,12-0.4L502,1575.1
		c3.4,3.2,3.6,8.6,0.4,12C500.7,1588.9,498.4,1589.8,496.2,1589.8z"/>
</g>
<g>
	<path class="st0" d="M412.9,1629.1c-2.1,0-4.2-0.8-5.8-2.3L72.4,1311.5c-3.4-3.2-3.6-8.6-0.4-12c3.2-3.4,8.6-3.6,12-0.4
		l334.6,315.3c3.4,3.2,3.6,8.6,0.4,12C417.4,1628.2,415.1,1629.1,412.9,1629.1z"/>
</g>
<g>
	<path class="st0" d="M269.4,1629.1c-2.1,0-4.2-0.8-5.8-2.3L59.2,1434.2c-3.4-3.2-3.6-8.6-0.4-12c3.2-3.4,8.6-3.6,12-0.4
		l204.4,192.6c3.4,3.2,3.6,8.6,0.4,12C273.9,1628.2,271.6,1629.1,269.4,1629.1z"/>
</g>
<g>
	<path class="st0" d="M1785.2,1536.8c-2.1,0-4.2-0.8-5.8-2.3L407,241.5c-3.4-3.2-3.6-8.6-0.4-12c3.2-3.4,8.6-3.6,12-0.4l1372.3,1293
		c3.4,3.2,3.6,8.6,0.4,12C1789.7,1535.9,1787.4,1536.8,1785.2,1536.8z"/>
</g>
<g>
	<path class="st0" d="M1660.2,1536.8c-2.1,0-4.2-0.8-5.8-2.3L207.6,171.4c-3.4-3.2-3.6-8.6-0.4-12c3.2-3.4,8.6-3.6,12-0.4
		L1666,1522.1c3.4,3.2,3.6,8.6,0.4,12C1664.7,1535.9,1662.5,1536.8,1660.2,1536.8z"/>
</g>
<g>
	<path class="st0" d="M2040.7,1520c-2.1,0-4.2-0.8-5.8-2.3L705.2,264.8c-3.4-3.2-3.6-8.6-0.4-12c3.2-3.4,8.6-3.6,12-0.4
		l1329.7,1252.8c3.4,3.2,3.6,8.6,0.4,12C2045.2,1519.1,2042.9,1520,2040.7,1520z"/>
</g>
<g>
	<path class="st0" d="M1915.7,1520c-2.1,0-4.2-0.8-5.8-2.3L558.7,244.6c-3.4-3.2-3.6-8.6-0.4-12c3.2-3.4,8.6-3.6,12-0.4l1351.2,1273
		c3.4,3.2,3.6,8.6,0.4,12C1920.2,1519.1,1918,1520,1915.7,1520z"/>
</g>
<g>
	<path class="st0" d="M2320.2,1542.2c-2.1,0-4.2-0.8-5.8-2.3L958.6,262.5c-3.4-3.2-3.6-8.6-0.4-12c3.2-3.4,8.6-3.6,12-0.4
		l1355.8,1277.4c3.4,3.2,3.6,8.6,0.4,12C2324.7,1541.3,2322.5,1542.2,2320.2,1542.2z"/>
</g>
<g>
	<path class="st0" d="M2191.4,1538.6c-2.1,0-4.2-0.8-5.8-2.3L814.7,244.6c-3.4-3.2-3.6-8.6-0.4-12c3.2-3.4,8.6-3.6,12-0.4
		l1370.9,1291.7c3.4,3.2,3.6,8.6,0.4,12C2195.9,1537.7,2193.7,1538.6,2191.4,1538.6z"/>
</g>
<g>
	<path class="st0" d="M2632.1,1608.3c-2.1,0-4.2-0.8-5.8-2.3L1202.9,264.8c-3.4-3.2-3.6-8.6-0.4-12c3.2-3.4,8.6-3.6,12-0.4
		l1423.4,1341.1c3.4,3.2,3.6,8.6,0.4,12C2636.6,1607.4,2634.4,1608.3,2632.1,1608.3z"/>
</g>
<g>
	<path class="st0" d="M2877.5,1702c-2.1,0-4.2-0.8-5.8-2.3L1348.7,264.8c-3.4-3.2-3.6-8.6-0.4-12c3.2-3.4,8.6-3.6,12-0.4
		l1522.9,1434.9c3.4,3.2,3.6,8.6,0.4,12C2882,1701.1,2879.7,1702,2877.5,1702z"/>
</g>
<g>
	<path class="st0" d="M2877.5,1565.6c-2.1,0-4.2-0.8-5.8-2.3L1491,262.5c-3.4-3.2-3.6-8.6-0.4-12c3.2-3.4,8.6-3.6,12-0.4
		l1380.6,1300.8c3.4,3.2,3.6,8.6,0.4,12C2882,1564.7,2879.7,1565.6,2877.5,1565.6z"/>
</g>
<g>
	<path class="st0" d="M2928,1471.4c-2.1,0-4.2-0.8-5.8-2.3l-1271-1194.5c-3.4-3.2-3.6-8.6-0.4-12c3.2-3.4,8.6-3.6,12-0.4
		l1271,1194.5c3.4,3.2,3.6,8.6,0.4,12C2932.6,1470.5,2930.3,1471.4,2928,1471.4z"/>
</g>
<g>
	<path class="st0" d="M2899.9,1294c-2.1,0-4.2-0.8-5.8-2.3L1804.2,264.8c-3.4-3.2-3.6-8.6-0.4-12c3.2-3.4,8.6-3.6,12-0.4
		l1089.9,1026.9c3.4,3.2,3.6,8.6,0.4,12C2904.4,1293.1,2902.2,1294,2899.9,1294z"/>
</g>
<g>
	<path class="st0" d="M2936.4,1182.6c-2.1,0-4.2-0.8-5.8-2.3l-961.3-905.7c-3.4-3.2-3.6-8.6-0.4-12c3.2-3.4,8.6-3.6,12-0.4
		l961.3,905.7c3.4,3.2,3.6,8.6,0.4,12C2940.9,1181.7,2938.6,1182.6,2936.4,1182.6z"/>
</g>
<g>
	<path class="st0" d="M2918.2,1045.3c-2.1,0-4.2-0.8-5.8-2.3l-827.1-779.3c-3.4-3.2-3.6-8.6-0.4-12c3.2-3.4,8.6-3.6,12-0.4
		l827.1,779.3c3.4,3.2,3.6,8.6,0.4,12C2922.8,1044.4,2920.5,1045.3,2918.2,1045.3z"/>
</g>
<g>
	<path class="st0" d="M2928,909.3c-2.1,0-4.2-0.8-5.8-2.3l-681.5-642.1c-3.4-3.2-3.6-8.6-0.4-12c3.2-3.4,8.6-3.6,12-0.4l681.5,642.1
		c3.4,3.2,3.6,8.6,0.4,12C2932.5,908.4,2930.3,909.3,2928,909.3z"/>
</g>
<g>
	<path class="st0" d="M2899.9,754.3c-2.1,0-4.3-0.8-5.9-2.4l-512-494.1c-3.4-3.3-3.5-8.6-0.2-12c3.3-3.4,8.6-3.5,12-0.2l512,494.1
		c3.4,3.3,3.5,8.6,0.2,12C2904.4,753.4,2902.2,754.3,2899.9,754.3z"/>
</g>
<g>
	<path class="st0" d="M2928,660.1c-2.1,0-4.2-0.8-5.8-2.3l-441.8-416.3c-3.4-3.2-3.6-8.6-0.4-12c3.2-3.4,8.6-3.6,12-0.4l441.8,416.3
		c3.4,3.2,3.6,8.6,0.4,12C2932.5,659.2,2930.3,660.1,2928,660.1z"/>
</g>
<g>
	<path class="st0" d="M2899.9,500.4c-2.1,0-4.2-0.8-5.8-2.3l-309.3-291.4c-3.4-3.2-3.6-8.6-0.4-12c3.2-3.4,8.6-3.6,12-0.4
		l309.3,291.4c3.4,3.2,3.6,8.6,0.4,12C2904.4,499.5,2902.2,500.4,2899.9,500.4z"/>
</g>
<g>
	<path class="st0" d="M2918.2,375.7c-2.1,0-4.2-0.8-5.8-2.3l-196-184.6c-3.4-3.2-3.6-8.6-0.4-12c3.2-3.4,8.6-3.6,12-0.4l196,184.6
		c3.4,3.2,3.6,8.6,0.4,12C2922.8,374.8,2920.5,375.7,2918.2,375.7z"/>
</g>
<g>
	<path class="st0" d="M2467.3,1570.7c-2.1,0-4.2-0.8-5.8-2.3L1077.9,264.8c-3.4-3.2-3.6-8.6-0.4-12c3.2-3.4,8.6-3.6,12-0.4
		L2473.1,1556c3.4,3.2,3.6,8.6,0.4,12C2471.8,1569.8,2469.5,1570.7,2467.3,1570.7z"/>
</g>
<g>
	<path class="st0" d="M2905.6,1977.3c-16.6,0-30-13.4-30-30v-1707c0-40-32.6-72.6-72.6-72.6H180.4c-40,0-72.6,32.6-72.6,72.6v1707
		c0,16.6-13.4,30-30,30s-30-13.4-30-30v-1707c0-73.1,59.5-132.6,132.6-132.6h2622.7c73.1,0,132.6,59.5,132.6,132.6v1707
		C2935.6,1963.9,2922.2,1977.3,2905.6,1977.3z"/>
</g>
<g>
	<path class="st0" d="M1516.7,1501.6c-2.3,0-4.5-0.9-6.2-2.7c-3.2-3.4-3.1-8.8,0.4-12L2866.8,209.3c3.4-3.2,8.8-3.1,12,0.4
		c3.2,3.4,3.1,8.8-0.4,12L1522.5,1499.3C1520.9,1500.8,1518.8,1501.6,1516.7,1501.6z"/>
</g>
<g>
	<path class="st0" d="M1632.3,1538.6c-2.3,0-4.5-0.9-6.2-2.7c-3.2-3.4-3.1-8.8,0.4-12L2925.2,300.3c3.4-3.2,8.8-3.1,12,0.4
		c3.2,3.4,3.1,8.8-0.4,12L1638.2,1536.3C1636.5,1537.8,1634.4,1538.6,1632.3,1538.6z"/>
</g>
<g>
	<path class="st0" d="M1774.1,1540.8c-2.3,0-4.5-0.9-6.2-2.7c-3.2-3.4-3.1-8.8,0.4-12L2914.7,446c3.4-3.2,8.8-3.1,12,0.4
		c3.2,3.4,3.1,8.8-0.4,12L1779.9,1538.5C1778.3,1540.1,1776.2,1540.8,1774.1,1540.8z"/>
</g>
<g>
	<path class="st0" d="M1896.2,1543.6c-2.3,0-4.5-0.9-6.2-2.7c-3.2-3.4-3.1-8.8,0.4-12L2912,566.3c3.4-3.2,8.8-3.1,12,0.4
		c3.2,3.4,3.1,8.8-0.4,12L1902,1541.3C1900.3,1542.8,1898.2,1543.6,1896.2,1543.6z"/>
</g>
<g>
	<path class="st0" d="M2021.9,1547.4c-2.3,0-4.5-0.9-6.2-2.7c-3.2-3.4-3.1-8.8,0.4-12L2912,688.6c3.4-3.2,8.8-3.1,12,0.4
		c3.2,3.4,3.1,8.8-0.4,12l-895.9,844.1C2026.1,1546.6,2024,1547.4,2021.9,1547.4z"/>
</g>
<g>
	<path class="st0" d="M2156.2,1538.6c-2.3,0-4.5-0.9-6.2-2.7c-3.2-3.4-3.1-8.8,0.4-12l780.1-735c3.4-3.2,8.8-3.1,12,0.4
		c3.2,3.4,3.1,8.8-0.4,12l-780.1,735C2160.4,1537.8,2158.3,1538.6,2156.2,1538.6z"/>
</g>
<g>
	<path class="st0" d="M2281.7,1551c-2.3,0-4.5-0.9-6.2-2.7c-3.2-3.4-3.1-8.8,0.4-12l636.6-599.8c3.4-3.2,8.8-3.1,12,0.4
		c3.2,3.4,3.1,8.8-0.4,12l-636.6,599.8C2285.9,1550.2,2283.8,1551,2281.7,1551z"/>
</g>
<g>
	<path class="st0" d="M2379,1577c-2.3,0-4.5-0.9-6.2-2.7c-3.2-3.4-3.1-8.8,0.4-12l526.6-496.2c3.4-3.2,8.8-3.1,12,0.4
		c3.2,3.4,3.1,8.8-0.4,12l-526.6,496.2C2383.2,1576.3,2381.1,1577,2379,1577z"/>
</g>
<g>
	<path class="st0" d="M2499.9,1589.8c-2.3,0-4.5-0.9-6.2-2.7c-3.2-3.4-3.1-8.8,0.4-12l405.8-382.3c3.4-3.2,8.8-3.1,12,0.4
		s3.1,8.8-0.4,12l-405.8,382.3C2504.1,1589,2502,1589.8,2499.9,1589.8z"/>
</g>
<g>
	<path class="st0" d="M2583.2,1629.1c-2.3,0-4.5-0.9-6.2-2.7c-3.2-3.4-3.1-8.8,0.4-12l334.6-315.3c3.4-3.2,8.8-3.1,12,0.4
		s3.1,8.8-0.4,12L2589,1626.8C2587.4,1628.3,2585.3,1629.1,2583.2,1629.1z"/>
</g>
<g>
	<path class="st0" d="M2726.7,1629.1c-2.3,0-4.5-0.9-6.2-2.7c-3.2-3.4-3.1-8.8,0.4-12l204.4-192.6c3.4-3.2,8.8-3.1,12,0.4
		s3.1,8.8-0.4,12l-204.4,192.6C2730.8,1628.3,2728.7,1629.1,2726.7,1629.1z"/>
</g>
<g>
	<path class="st0" d="M1210.9,1536.8c-2.3,0-4.5-0.9-6.2-2.7c-3.2-3.4-3.1-8.8,0.4-12l1372.3-1293c3.4-3.2,8.8-3.1,12,0.4
		c3.2,3.4,3.1,8.8-0.4,12l-1372.3,1293C1215,1536.1,1212.9,1536.8,1210.9,1536.8z"/>
</g>
<g>
	<path class="st0" d="M1335.8,1536.8c-2.3,0-4.5-0.9-6.2-2.7c-3.2-3.4-3.1-8.8,0.4-12L2776.8,159c3.4-3.2,8.8-3.1,12,0.4
		c3.2,3.4,3.1,8.8-0.4,12L1341.6,1534.5C1340,1536.1,1337.9,1536.8,1335.8,1536.8z"/>
</g>
<g>
	<path class="st0" d="M955.3,1520c-2.3,0-4.5-0.9-6.2-2.7c-3.2-3.4-3.1-8.8,0.4-12L2279.2,252.5c3.4-3.2,8.8-3.1,12,0.4
		c3.2,3.4,3.1,8.8-0.4,12L961.2,1517.6C959.5,1519.2,957.4,1520,955.3,1520z"/>
</g>
<g>
	<path class="st0" d="M1080.3,1520c-2.3,0-4.5-0.9-6.2-2.7c-3.2-3.4-3.1-8.8,0.4-12l1351.2-1273c3.4-3.2,8.8-3.1,12,0.4
		c3.2,3.4,3.1,8.8-0.4,12l-1351.2,1273C1084.5,1519.2,1082.4,1520,1080.3,1520z"/>
</g>
<g>
	<path class="st0" d="M675.8,1542.2c-2.3,0-4.5-0.9-6.2-2.7c-3.2-3.4-3.1-8.8,0.4-12L2025.8,250.1c3.4-3.2,8.8-3.1,12,0.4
		c3.2,3.4,3.1,8.8-0.4,12L681.6,1539.9C680,1541.4,677.9,1542.2,675.8,1542.2z"/>
</g>
<g>
	<path class="st0" d="M804.6,1538.6c-2.3,0-4.5-0.9-6.2-2.7c-3.2-3.4-3.1-8.8,0.4-12L2169.7,232.2c3.4-3.2,8.8-3.1,12,0.4
		c3.2,3.4,3.1,8.8-0.4,12L810.5,1536.3C808.8,1537.8,806.7,1538.6,804.6,1538.6z"/>
</g>
<g>
	<path class="st0" d="M363.9,1608.3c-2.3,0-4.5-0.9-6.2-2.7c-3.2-3.4-3.1-8.8,0.4-12L1781.5,252.5c3.4-3.2,8.8-3.1,12,0.4
		c3.2,3.4,3.1,8.8-0.4,12L369.8,1605.9C368.1,1607.5,366,1608.3,363.9,1608.3z"/>
</g>
<g>
	<path class="st0" d="M118.6,1702c-2.3,0-4.5-0.9-6.2-2.7c-3.2-3.4-3.1-8.8,0.4-12L1635.7,252.5c3.4-3.2,8.8-3.1,12,0.4
		c3.2,3.4,3.1,8.8-0.4,12L124.4,1699.7C122.8,1701.3,120.7,1702,118.6,1702z"/>
</g>
<g>
	<path class="st0" d="M118.6,1565.6c-2.3,0-4.5-0.9-6.2-2.7c-3.2-3.4-3.1-8.8,0.4-12L1493.3,250.1c3.4-3.2,8.8-3.1,12,0.4
		c3.2,3.4,3.1,8.8-0.4,12L124.4,1563.2C122.8,1564.8,120.7,1565.6,118.6,1565.6z"/>
</g>
<g>
	<path class="st0" d="M68,1471.4c-2.3,0-4.5-0.9-6.2-2.7c-3.2-3.4-3-8.8,0.4-12l1271-1194.5c3.4-3.2,8.8-3,12,0.4
		c3.2,3.4,3,8.8-0.4,12L73.8,1469.1C72.2,1470.7,70.1,1471.4,68,1471.4z"/>
</g>
<g>
	<path class="st0" d="M96.1,1294c-2.3,0-4.5-0.9-6.2-2.7c-3.2-3.4-3.1-8.8,0.4-12L1180.1,252.5c3.4-3.2,8.8-3.1,12,0.4
		c3.2,3.4,3.1,8.8-0.4,12L101.9,1291.7C100.3,1293.3,98.2,1294,96.1,1294z"/>
</g>
<g>
	<path class="st0" d="M59.6,1182.6c-2.3,0-4.5-0.9-6.2-2.7c-3.2-3.4-3.1-8.8,0.4-12l961.3-905.7c3.4-3.2,8.8-3.1,12,0.4
		c3.2,3.4,3.1,8.8-0.4,12L65.5,1180.3C63.8,1181.9,61.7,1182.6,59.6,1182.6z"/>
</g>
<g>
	<path class="st0" d="M77.8,1045.3c-2.3,0-4.5-0.9-6.2-2.7c-3.2-3.4-3.1-8.8,0.4-12L899,251.3c3.4-3.2,8.8-3.1,12,0.4
		c3.2,3.4,3.1,8.8-0.4,12L83.6,1042.9C82,1044.5,79.9,1045.3,77.8,1045.3z"/>
</g>
<g>
	<path class="st0" d="M68,909.3c-2.3,0-4.5-0.9-6.2-2.7c-3.2-3.4-3.1-8.8,0.4-12l681.5-642.1c3.4-3.2,8.8-3.1,12,0.4
		c3.2,3.4,3.1,8.8-0.4,12L73.8,906.9C72.2,908.5,70.1,909.3,68,909.3z"/>
</g>
<g>
	<path class="st0" d="M96.1,754.3c-2.2,0-4.4-0.9-6.1-2.6c-3.3-3.4-3.2-8.8,0.2-12l512-494.1c3.4-3.3,8.8-3.2,12,0.2
		c3.3,3.4,3.2,8.8-0.2,12L102,751.9C100.4,753.5,98.2,754.3,96.1,754.3z"/>
</g>
<g>
	<path class="st0" d="M68,660.1c-2.3,0-4.5-0.9-6.2-2.7c-3.2-3.4-3.1-8.8,0.4-12L504,229.2c3.4-3.2,8.8-3.1,12,0.4
		c3.2,3.4,3.1,8.8-0.4,12L73.8,657.8C72.2,659.3,70.1,660.1,68,660.1z"/>
</g>
<g>
	<path class="st0" d="M96.1,500.4c-2.3,0-4.5-0.9-6.2-2.7c-3.2-3.4-3.1-8.8,0.4-12l309.3-291.4c3.4-3.2,8.8-3.1,12,0.4
		c3.2,3.4,3.1,8.8-0.4,12L101.9,498.1C100.3,499.6,98.2,500.4,96.1,500.4z"/>
</g>
<g>
	<path class="st0" d="M77.8,375.7c-2.3,0-4.5-0.9-6.2-2.7c-3.2-3.4-3.1-8.8,0.4-12l196-184.6c3.4-3.2,8.8-3.1,12,0.4
		c3.2,3.4,3.1,8.8-0.4,12l-196,184.6C82,375,79.9,375.7,77.8,375.7z"/>
</g>
<g>
	<path class="st0" d="M528.8,1570.7c-2.3,0-4.5-0.9-6.2-2.7c-3.2-3.4-3.1-8.8,0.4-12L1906.5,252.5c3.4-3.2,8.8-3.1,12,0.4
		c3.2,3.4,3.1,8.8-0.4,12L534.6,1568.4C532.9,1569.9,530.8,1570.7,528.8,1570.7z"/>
</g>
<g>
	<g>
		<path class="st1" d="M1511.7,1533.7c-20.6,0-37.4-16.7-37.4-37.4V279.6c0-20.6,16.7-37.4,37.4-37.4s37.4,16.7,37.4,37.4v1216.7
			C1549.1,1517,1532.3,1533.7,1511.7,1533.7z"/>
		<path class="st0" d="M1511.7,1546.2c-27.5,0-49.9-22.4-49.9-49.9V279.6c0-27.5,22.4-49.9,49.9-49.9c27.5,0,49.9,22.4,49.9,49.9
			v1216.7C1561.6,1523.8,1539.2,1546.2,1511.7,1546.2z M1511.7,254.8c-13.7,0-24.9,11.2-24.9,24.9v1216.7
			c0,13.7,11.2,24.9,24.9,24.9c13.7,0,24.9-11.2,24.9-24.9V279.6C1536.6,265.9,1525.4,254.8,1511.7,254.8z"/>
	</g>
</g>
<g>
	<g>
		<path class="st1" d="M2899.9,1762.3c-4.3,0-8.6-1-12.7-3.1c-1.7-0.9-167.5-86.9-309.1-123c-146-37.2-420.8-64.7-628.3-75.4
			c-204.2-10.6-958-4.2-1212.3,18.2c-243.1,21.4-602.1,136.8-605.7,138c-14.4,4.7-29.9-3.2-34.5-17.7c-4.7-14.4,3.2-29.9,17.7-34.5
			c0.9-0.3,92.8-29.9,213.9-61.8c163.1-42.9,299-69.4,403.8-78.6c175.6-15.5,587.5-23.4,895.2-23.4c141,0,260.2,1.7,324.7,5
			c210.2,10.9,489.4,38.9,639,77c147.9,37.7,313.9,123.8,320.9,127.5c13.4,7,18.6,23.6,11.6,37
			C2919.4,1756.9,2909.8,1762.3,2899.9,1762.3z"/>
		<path class="st0" d="M2899.9,1774.8L2899.9,1774.8c-6.4,0-12.8-1.6-18.4-4.5c-1.6-0.9-165.9-86.1-306.4-121.9
			c-145.2-37-419-64.3-625.9-75c-64.1-3.3-182.6-5-322.7-5c-305.4,0-713.8,7.8-887.9,23.2c-241.5,21.3-599.4,136.3-603,137.4
			c-10.1,3.3-21,2.4-30.5-2.4c-9.5-4.9-16.5-13.1-19.8-23.3c-6.8-20.9,4.8-43.5,25.7-50.3c0.9-0.3,94-30.2,214.6-62
			c163.8-43.1,300.4-69.7,405.9-79c174.3-15.4,582.8-23.4,896.3-23.4c147.3,0,262.9,1.8,325.4,5c210.8,10.9,491,39.1,641.5,77.4
			c149.4,38.1,316.6,124.9,323.6,128.5c9.5,4.9,16.4,13.2,19.6,23.4c3.2,10.2,2.2,21-2.7,30.4
			C2928.4,1766.5,2914.9,1774.8,2899.9,1774.8z M1627,1543.3c140.4,0,259.1,1.6,323.4,5c208.2,10.8,483.9,38.4,630.8,75.8
			c143.4,36.5,310.1,123.1,311.8,124c2.2,1.1,4.5,1.7,6.9,1.7c5.6,0,10.7-3.1,13.2-8c1.8-3.5,2.2-7.6,1-11.4s-3.8-6.9-7.3-8.8
			c-6.9-3.6-171.6-89.1-318.2-126.5c-148.9-37.9-427-65.8-636.6-76.7c-62.1-3.2-177.2-5-324.1-5c-312.9,0-720.5,8-894.1,23.3
			c-104.1,9.2-239.3,35.5-401.8,78.3c-119.9,31.6-212.3,61.3-213.3,61.6c-7.8,2.5-12.1,11-9.6,18.8c1.2,3.8,3.9,6.9,7.4,8.7
			c3.5,1.8,7.6,2.1,11.4,0.9c3.6-1.2,364.2-117,608.4-138.5C911,1551.1,1320.8,1543.3,1627,1543.3z"/>
	</g>
</g>
<g>
	<g>
		<path class="st1" d="M1665.2,286.1c-57.6,0-106.6,0-141.2-0.1c-387.3-0.5-820.5-3.3-875-6.9c-104-7-477.4-106-493.2-110.3
			c-14.6-3.9-23.3-18.9-19.4-33.5c3.9-14.6,18.9-23.3,33.5-19.4c3.8,1,384,101.9,482.8,108.5c47,3.2,437.9,6.2,871.4,6.8
			c485.9,0.7,826.3-1.9,867.2-6.7c96-11.1,432.7-94.7,436.1-95.6c14.7-3.7,29.6,5.3,33.2,20c3.7,14.7-5.3,29.6-20,33.2
			c-14,3.5-343.5,85.3-443,96.8C2344.1,285.1,1921.2,286.1,1665.2,286.1z"/>
		<path class="st0" d="M1665.2,298.6c-60.1,0-110-0.1-141.2-0.1c-387.5-0.5-821-3.3-875.8-7c-105.2-7-479.7-106.4-495.6-110.7
			c-10.3-2.7-18.9-9.3-24.3-18.6c-5.3-9.2-6.8-20-4-30.3c2.7-10.3,9.3-18.9,18.6-24.3c9.2-5.3,20-6.8,30.3-4
			c3.8,1,382.8,101.6,480.4,108.1c46.8,3.1,437.3,6.2,870.6,6.8c485.4,0.7,825.2-1.9,865.8-6.6c95.5-11.1,431.1-94.4,434.5-95.3
			c10.3-2.6,21.1-1,30.2,4.5c9.1,5.5,15.6,14.2,18.2,24.6c2.6,10.3,1,21.1-4.5,30.2c-5.5,9.1-14.2,15.6-24.6,18.2
			c-14,3.5-344.3,85.5-444.6,97.1C2344.7,297.6,1915.9,298.6,1665.2,298.6z M162.8,127.3c-2.6,0-5.2,0.7-7.5,2
			c-3.4,2-5.9,5.2-6.9,9.1c-2.1,7.9,2.6,16.1,10.6,18.2c15.8,4.2,388,103,490.9,109.9c54.3,3.6,487.1,6.4,874.1,6.9
			c31.2,0,81.1,0.1,141.2,0.1c250.2,0,677.9-0.9,731-7.1c98.7-11.4,427.5-93.1,441.4-96.5c3.9-1,7.1-3.4,9.2-6.8
			c2.1-3.4,2.7-7.4,1.7-11.3c-1-3.9-3.4-7.1-6.8-9.2c-3.4-2.1-7.4-2.7-11.3-1.7c-3.4,0.8-340.6,84.6-437.7,95.8
			c-41.5,4.8-382.4,7.5-868.7,6.8c-433.7-0.6-824.9-3.7-872.2-6.8c-100-6.7-481.3-107.9-485.2-108.9
			C165.4,127.5,164.1,127.3,162.8,127.3z"/>
	</g>
</g>
<g>
	<g>
		<path class="st2" d="M2918.3,1970.3c-38.9,0-70.4-31.5-70.4-70.4V193c0-17.7-14.4-32.2-32.2-32.2H193c-17.7,0-32.2,14.4-32.2,32.2
			v1707c0,38.9-31.5,70.4-70.4,70.4S20,1938.8,20,1899.9V193C20,97.6,97.6,20,193,20h2622.7c95.4,0,173,77.6,173,173v1707
			C2988.7,1938.8,2957.1,1970.3,2918.3,1970.3z"/>
		<path class="st0" d="M2918.2,1990.3c-49.9,0-90.4-40.6-90.4-90.4V193c0-6.7-5.5-12.2-12.2-12.2H193c-6.7,0-12.2,5.5-12.2,12.2
			v1707c0,49.9-40.6,90.4-90.4,90.4S0,1949.8,0,1899.9V193C0,86.6,86.6,0,193,0h2622.7c106.4,0,193,86.6,193,193v1707
			C3008.7,1949.8,2968.1,1990.3,2918.2,1990.3z M193,140.8h2622.7c28.8,0,52.2,23.4,52.2,52.2v1707c0,27.8,22.6,50.4,50.4,50.4
			s50.4-22.6,50.4-50.4V193c0-84.4-68.6-153-153-153H193c-84.4,0-153,68.6-153,153v1707c0,27.8,22.6,50.4,50.4,50.4
			c27.8,0,50.4-22.6,50.4-50.4V193C140.8,164.2,164.2,140.8,193,140.8z"/>
	</g>
</g>
<g>
	<path class="st3" d="M193.3,90.8c-8.8,0-16-7.1-16-16c0-8.8,7.1-16,16-16L641,57.5c0,0,0,0,0,0c8.8,0,16,7.1,16,16
		c0,8.8-7.1,16-16,16L193.3,90.8C193.3,90.8,193.3,90.8,193.3,90.8z"/>
</g>
<g>
	<path class="st3" d="M77.8,256.3c-8.1,0-15.1-6.2-15.9-14.5c-0.3-3.4-7.5-85,44.8-143.8c5.9-6.6,16-7.2,22.6-1.3
		c6.6,5.9,7.2,16,1.3,22.6c-43.1,48.5-36.9,118.8-36.8,119.5c0.8,8.8-5.6,16.6-14.4,17.5C78.8,256.3,78.3,256.3,77.8,256.3z"/>
</g>
<g>
	<path class="st3" d="M2929.2,1763.5c-8.8,0-16-7.1-16-15.9l-1.9-462c0-8.8,7.1-16,15.9-16.1c0,0,0,0,0.1,0c8.8,0,16,7.1,16,15.9
		l1.9,462C2945.3,1756.3,2938.1,1763.5,2929.2,1763.5C2929.3,1763.5,2929.2,1763.5,2929.2,1763.5z"/>
</g>
</svg>
